<svg height="100" version="1.1" width="100" xmlns="http://www.w3.org/2000/svg" xmlns:xlink="http://www.w3.org/1999/xlink" style="overflow: hidden; position: relative; left: -0.5px;" viewBox="182.8095 118 221.39687499999997 213.989075">
    <defs style="-webkit-tap-highlight-color: rgba(0, 0, 0, 0);">
        <linearGradient x1="1.8369701987210297e-16" y1="0" x2="0" y2="1" style="-webkit-tap-highlight-color: rgba(0, 0, 0, 0);">
            <stop offset="44%" stop-color="#676767" stop-opacity="1" style="-webkit-tap-highlight-color: rgba(0, 0, 0, 0);">

            </stop>
            <stop offset="91%" stop-color="#676767" stop-opacity="1" style="-webkit-tap-highlight-color: rgba(0, 0, 0, 0);"></stop>
        </linearGradient>
        <linearGradient id="grad1" x1="1.8369701987210297e-16" y1="0" x2="0" y2="1" style="-webkit-tap-highlight-color: rgba(0, 0, 0, 0);">
            <stop offset="44%" stop-color="#676767" stop-opacity="1" style="-webkit-tap-highlight-color: rgba(0, 0, 0, 0);"></stop>
            <stop offset="91%" stop-color="#BABABA" stop-opacity="1" style="-webkit-tap-highlight-color: rgba(0, 0, 0, 0);"></stop>
        </linearGradient></defs><path style="-webkit-tap-highlight-color: rgba(0, 0, 0, 0); opacity: 1; fill-opacity: 1;" fill="url(#grad1)" stroke="none" d="M-78.6,-0.68L-67.89,-34.08L-61.75,-34.08L-51.04,-0.68L-56.17,0.96L-59.1,-8.11L-70.52,-8.11L-73.45,0.96L-78.6,-0.68M-68.95,-13.15L-60.7,-13.15L-64.19,-24.09L-64.73,-27.35L-64.91,-27.35L-65.43,-24.09L-68.95,-13.15ZM-50.57,-4.13L-47.41,-5.27L-45.77,-6.96L-43.61,-26.06L-25.8,-26.06L-25.8,0L-31.33,0L-31.33,-21.02L-38.52,-21.02L-40.4,-4.62L-43.75,-1.1L-48.79,0.73L-50.57,-4.13ZM-20.52,0L-20.52,-26.06L-15.02,-26.06L-15.02,-17.41L-3.84,-17.41L0.73,-12.87L0.73,-4.57L-3.84,0L-20.52,0M-15.02,-5.04L-6.27,-5.04L-4.8,-6.54L-4.8,-10.9L-6.27,-12.38L-15.02,-12.38L-15.02,-5.04ZM4.58,0L4.58,-26.06L10.09,-26.06L10.09,-15.45L12.1,-15.45L18.15,-24.38L23.23,-27.02L25.65,-22.36L22.13,-20.55L17,-12.96L22.13,-5.53L25.65,-3.7L23.23,0.96L18.15,-1.69L12.1,-10.41L10.09,-10.41L10.09,0L4.58,0ZM27.55,-4.62L27.55,-21.45L32.09,-26.06L44.45,-26.06L48.99,-21.45L48.99,-4.62L44.45,0L32.09,0L27.55,-4.62M33.05,-6.54L34.55,-5.04L41.98,-5.04L43.48,-6.54L43.48,-19.55L41.98,-21.02L34.55,-21.02L33.05,-19.55L33.05,-6.54ZM53.77,-25.43L58.25,-26.55L59.16,-22.85L61.93,-26.06L71.87,-26.06L76.48,-21.52L76.48,-4.57L71.87,0L63.38,0L60.78,-1.88L60.78,8.06L55.27,8.06L55.27,-19.34L53.77,-25.43M60.78,-7.24L63.85,-5.04L69.48,-5.04L70.95,-6.54L70.95,-19.55L69.48,-21.02L63.43,-21.02L60.78,-18L60.78,-7.24Z" opacity="1" fill-opacity="1" transform="matrix(1.4,0,0,1.4,293.497,310.0047)" stroke-width="1"></path>
    <path style="-webkit-tap-highlight-color: rgba(0, 0, 0, 0); opacity: 1;" fill="#676767" stroke="#676767" d="M80,10L10,45V115L80,150L150,115V45ZM140,110L80,140L20,110V50L80,20L140,50V110ZM30,55V105L80,130L130,105V55L80,30ZM120,100L80,120L40,100V60L80,40L120,60V100ZM50,65V95L80,110L110,95V65L80,50ZM100,90L80,100L60,90V70L80,60L100,70V90Z" stroke-width="2" opacity="1" transform="matrix(1,0,0,1,210,108)"></path>
</svg>